<mxfile host="app.diagrams.net" modified="2022-10-31T21:45:51.665Z" agent="5.0 (Windows NT 10.0; Win64; x64) AppleWebKit/537.36 (KHTML, like Gecko) Chrome/106.0.0.0 Safari/537.36" etag="8bs_NI88od9v6j2WSCSJ" version="20.5.1" type="github">
  <diagram id="R2lEEEUBdFMjLlhIrx00" name="Page-1">
    <mxGraphModel dx="3406" dy="1158" grid="1" gridSize="10" guides="1" tooltips="1" connect="1" arrows="1" fold="1" page="1" pageScale="1" pageWidth="850" pageHeight="1100" math="0" shadow="0" extFonts="Permanent Marker^https://fonts.googleapis.com/css?family=Permanent+Marker">
      <root>
        <mxCell id="0" />
        <mxCell id="1" parent="0" />
        <mxCell id="FPL4rMx5QKKNr9mmE6WW-1" value="&lt;h1&gt;SQL&lt;/h1&gt;&lt;p&gt;&lt;span style=&quot;color: rgb(36, 41, 47); font-family: -apple-system, BlinkMacSystemFont, &amp;quot;Segoe UI&amp;quot;, Helvetica, Arial, sans-serif, &amp;quot;Apple Color Emoji&amp;quot;, &amp;quot;Segoe UI Emoji&amp;quot;; background-color: rgb(255, 255, 255);&quot;&gt;&lt;font style=&quot;font-size: 11px;&quot;&gt;En esta table se guarda toda la información referente a las actividades realizan los usuarios cuando ingresan al Home Banking. La estructura de dicha tabla se pueden ver a continuación:&lt;/font&gt;&lt;/span&gt;&lt;br&gt;&lt;/p&gt;" style="text;html=1;strokeColor=none;fillColor=none;spacing=5;spacingTop=-20;whiteSpace=wrap;overflow=hidden;rounded=0;" vertex="1" parent="1">
          <mxGeometry x="-620" y="210" width="260" height="120" as="geometry" />
        </mxCell>
        <mxCell id="FPL4rMx5QKKNr9mmE6WW-2" value="" style="shape=image;verticalLabelPosition=bottom;labelBackgroundColor=default;verticalAlign=top;aspect=fixed;imageAspect=0;image=https://user-images.githubusercontent.com/62435760/127665003-e3aad47b-616d-44aa-af21-c25249e11123.png;" vertex="1" parent="1">
          <mxGeometry x="-280" y="230" width="340.75" height="350" as="geometry" />
        </mxCell>
        <mxCell id="FPL4rMx5QKKNr9mmE6WW-6" value="&lt;h1&gt;&lt;span style=&quot;font-size: 11px; background-color: rgb(255, 255, 255); color: rgb(36, 41, 47); font-family: -apple-system, BlinkMacSystemFont, &amp;quot;Segoe UI&amp;quot;, Helvetica, Arial, sans-serif, &amp;quot;Apple Color Emoji&amp;quot;, &amp;quot;Segoe UI Emoji&amp;quot;; font-weight: normal;&quot;&gt;Basado en esa tabla, el área de la banca privada del banco desea que se arme un modelo dimensional en donde se contemplen dos tablas principales:&lt;/span&gt;&lt;br&gt;&lt;/h1&gt;&lt;p style=&quot;box-sizing: border-box; margin-top: 0px; margin-bottom: 16px; color: rgb(36, 41, 47); font-family: -apple-system, BlinkMacSystemFont, &amp;quot;Segoe UI&amp;quot;, Helvetica, Arial, sans-serif, &amp;quot;Apple Color Emoji&amp;quot;, &amp;quot;Segoe UI Emoji&amp;quot;; background-color: rgb(255, 255, 255);&quot; dir=&quot;auto&quot;&gt;&lt;font style=&quot;font-size: 11px;&quot;&gt;● La primera vez que el usuario se logueo al Home Banking. Asumiendo que dicha situación es un tipo de evento.&lt;/font&gt;&lt;/p&gt;&lt;p style=&quot;box-sizing: border-box; margin-top: 0px; margin-bottom: 16px; color: rgb(36, 41, 47); font-family: -apple-system, BlinkMacSystemFont, &amp;quot;Segoe UI&amp;quot;, Helvetica, Arial, sans-serif, &amp;quot;Apple Color Emoji&amp;quot;, &amp;quot;Segoe UI Emoji&amp;quot;; background-color: rgb(255, 255, 255);&quot; dir=&quot;auto&quot;&gt;&lt;font style=&quot;font-size: 11px;&quot;&gt;● La actividad diaria de cada usuario.&lt;/font&gt;&lt;/p&gt;&lt;p style=&quot;box-sizing: border-box; margin-top: 0px; margin-bottom: 16px; color: rgb(36, 41, 47); font-family: -apple-system, BlinkMacSystemFont, &amp;quot;Segoe UI&amp;quot;, Helvetica, Arial, sans-serif, &amp;quot;Apple Color Emoji&amp;quot;, &amp;quot;Segoe UI Emoji&amp;quot;; background-color: rgb(255, 255, 255);&quot; dir=&quot;auto&quot;&gt;&lt;font style=&quot;font-size: 11px;&quot;&gt;Tenga en cuenta las siguientes consideraciones técnicas:&lt;/font&gt;&lt;/p&gt;&lt;ol style=&quot;box-sizing: border-box; padding-left: 2em; margin-top: 0px; margin-bottom: 16px; color: rgb(36, 41, 47); font-family: -apple-system, BlinkMacSystemFont, &amp;quot;Segoe UI&amp;quot;, Helvetica, Arial, sans-serif, &amp;quot;Apple Color Emoji&amp;quot;, &amp;quot;Segoe UI Emoji&amp;quot;; background-color: rgb(255, 255, 255);&quot; dir=&quot;auto&quot;&gt;&lt;li style=&quot;box-sizing: border-box;&quot;&gt;&lt;font style=&quot;font-size: 11px;&quot;&gt;La table de origen contiene mil millones de registros.&lt;/font&gt;&lt;/li&gt;&lt;li style=&quot;box-sizing: border-box; margin-top: 0.25em;&quot;&gt;&lt;font style=&quot;font-size: 11px;&quot;&gt;El modelo a construer debe poder ejecutarse tanto en consolas SQL o en herramientas de BI.&lt;/font&gt;&lt;/li&gt;&lt;li style=&quot;box-sizing: border-box; margin-top: 0.25em;&quot;&gt;&lt;font style=&quot;font-size: 11px;&quot;&gt;Uno de los KPIs mas importantes que tiene la organización es la de retención de clientes. Dicho KPI es el porcentaje de usuarios que realizaron una actividad diferente al login durante 2 dos días consecutivos y cuya sesión haya durando al menos 5 minutos.&lt;/font&gt;&lt;/li&gt;&lt;/ol&gt;" style="text;html=1;strokeColor=none;fillColor=none;spacing=5;spacingTop=-20;whiteSpace=wrap;overflow=hidden;rounded=0;fontSize=11;" vertex="1" parent="1">
          <mxGeometry x="-700" y="330" width="450" height="310" as="geometry" />
        </mxCell>
        <mxCell id="FPL4rMx5QKKNr9mmE6WW-8" value="&lt;h1&gt;&lt;font style=&quot;&quot;&gt;&lt;span style=&quot;background-color: rgb(255, 255, 255); color: rgb(36, 41, 47); font-family: -apple-system, BlinkMacSystemFont, &amp;quot;Segoe UI&amp;quot;, Helvetica, Arial, sans-serif, &amp;quot;Apple Color Emoji&amp;quot;, &amp;quot;Segoe UI Emoji&amp;quot;;&quot;&gt;&lt;font style=&quot;font-size: 18px;&quot;&gt;Pregunta 1&lt;/font&gt;&lt;/span&gt;&lt;br&gt;&lt;/font&gt;&lt;/h1&gt;&lt;p style=&quot;box-sizing: border-box; margin-top: 0px; margin-bottom: 16px; color: rgb(36, 41, 47); font-family: -apple-system, BlinkMacSystemFont, &amp;quot;Segoe UI&amp;quot;, Helvetica, Arial, sans-serif, &amp;quot;Apple Color Emoji&amp;quot;, &amp;quot;Segoe UI Emoji&amp;quot;; background-color: rgb(255, 255, 255);&quot; dir=&quot;auto&quot;&gt;&lt;font style=&quot;font-size: 11px;&quot;&gt;Como resolvería este tipo de petición? Explique detalladamente el proceso de limpieza y transformación del modelo inicial. Que tecnologías utilizaría y por que?&lt;/font&gt;&lt;/p&gt;&lt;h3 style=&quot;box-sizing: border-box; margin-top: 24px; margin-bottom: 16px; line-height: 1.25; color: rgb(36, 41, 47); font-family: -apple-system, BlinkMacSystemFont, &amp;quot;Segoe UI&amp;quot;, Helvetica, Arial, sans-serif, &amp;quot;Apple Color Emoji&amp;quot;, &amp;quot;Segoe UI Emoji&amp;quot;; background-color: rgb(255, 255, 255);&quot; dir=&quot;auto&quot;&gt;&lt;a style=&quot;font-size: 1.25em; box-sizing: border-box; background-color: transparent; text-decoration-line: none; float: left; padding-right: 4px; margin-left: -20px; line-height: 1;&quot; href=&quot;https://github.com/DE-Santander/ssr-fmaver#ejercicio-1&quot; aria-hidden=&quot;true&quot; class=&quot;anchor&quot; id=&quot;user-content-ejercicio-1&quot;&gt;&lt;svg aria-hidden=&quot;true&quot; height=&quot;16&quot; width=&quot;16&quot; version=&quot;1.1&quot; viewBox=&quot;0 0 16 16&quot; class=&quot;octicon octicon-link&quot;&gt;&lt;font style=&quot;font-size: 11px;&quot;&gt;&lt;path d=&quot;M7.775 3.275a.75.75 0 001.06 1.06l1.25-1.25a2 2 0 112.83 2.83l-2.5 2.5a2 2 0 01-2.83 0 .75.75 0 00-1.06 1.06 3.5 3.5 0 004.95 0l2.5-2.5a3.5 3.5 0 00-4.95-4.95l-1.25 1.25zm-4.69 9.64a2 2 0 010-2.83l2.5-2.5a2 2 0 012.83 0 .75.75 0 001.06-1.06 3.5 3.5 0 00-4.95 0l-2.5 2.5a3.5 3.5 0 004.95 4.95l1.25-1.25a.75.75 0 00-1.06-1.06l-1.25 1.25a2 2 0 01-2.83 0z&quot; fill-rule=&quot;evenodd&quot;&gt;&lt;/path&gt;&lt;/font&gt;&lt;/svg&gt;&lt;/a&gt;&lt;font size=&quot;3&quot;&gt;Ejercicio 1&lt;/font&gt;&lt;/h3&gt;&lt;p&gt;&lt;span style=&quot;background-color: rgb(255, 255, 255); color: rgb(36, 41, 47); font-family: -apple-system, BlinkMacSystemFont, &amp;quot;Segoe UI&amp;quot;, Helvetica, Arial, sans-serif, &amp;quot;Apple Color Emoji&amp;quot;, &amp;quot;Segoe UI Emoji&amp;quot;;&quot;&gt;&lt;font style=&quot;font-size: 11px;&quot;&gt;Realice el DER que de soporte al modelo dimensional solicitado por la banca privada.&lt;/font&gt;&lt;/span&gt;.&lt;/p&gt;" style="text;html=1;strokeColor=none;fillColor=none;spacing=5;spacingTop=-20;whiteSpace=wrap;overflow=hidden;rounded=0;fontSize=11;" vertex="1" parent="1">
          <mxGeometry x="-700" y="610" width="460" height="150" as="geometry" />
        </mxCell>
        <mxCell id="FPL4rMx5QKKNr9mmE6WW-9" value="DimUser" style="shape=table;startSize=32;container=1;collapsible=1;childLayout=tableLayout;fixedRows=1;rowLines=0;fontStyle=1;align=center;resizeLast=1;strokeColor=#5C5570;fontFamily=Verdana;fontColor=#FFFFFF;fillColor=#5F687D;gradientColor=none;" vertex="1" parent="1">
          <mxGeometry x="170" y="90" width="490" height="122" as="geometry" />
        </mxCell>
        <mxCell id="FPL4rMx5QKKNr9mmE6WW-10" value="" style="shape=tableRow;horizontal=0;startSize=0;swimlaneHead=0;swimlaneBody=0;fillColor=none;collapsible=0;dropTarget=0;points=[[0,0.5],[1,0.5]];portConstraint=eastwest;top=0;left=0;right=0;bottom=1;strokeColor=#5C5570;fontFamily=Verdana;fontColor=#545454;" vertex="1" parent="FPL4rMx5QKKNr9mmE6WW-9">
          <mxGeometry y="32" width="490" height="30" as="geometry" />
        </mxCell>
        <mxCell id="FPL4rMx5QKKNr9mmE6WW-11" value="PK" style="shape=partialRectangle;connectable=0;fillColor=none;top=0;left=0;bottom=0;right=0;fontStyle=1;overflow=hidden;strokeColor=#5C5570;fontFamily=Verdana;fontColor=#545454;" vertex="1" parent="FPL4rMx5QKKNr9mmE6WW-10">
          <mxGeometry width="30" height="30" as="geometry">
            <mxRectangle width="30" height="30" as="alternateBounds" />
          </mxGeometry>
        </mxCell>
        <mxCell id="FPL4rMx5QKKNr9mmE6WW-12" value="USER_ID" style="shape=partialRectangle;connectable=0;fillColor=none;top=0;left=0;bottom=0;right=0;align=left;spacingLeft=6;fontStyle=5;overflow=hidden;strokeColor=#5C5570;fontFamily=Verdana;fontColor=#545454;" vertex="1" parent="FPL4rMx5QKKNr9mmE6WW-10">
          <mxGeometry x="30" width="346.5" height="30" as="geometry">
            <mxRectangle width="346.5" height="30" as="alternateBounds" />
          </mxGeometry>
        </mxCell>
        <mxCell id="FPL4rMx5QKKNr9mmE6WW-13" value="NUMBER(38,0)" style="shape=partialRectangle;connectable=0;fillColor=none;top=0;left=0;bottom=0;right=0;align=left;spacingLeft=6;fontStyle=5;overflow=hidden;strokeColor=#5C5570;fontFamily=Verdana;fontColor=#545454;" vertex="1" parent="FPL4rMx5QKKNr9mmE6WW-10">
          <mxGeometry x="376.5" width="113.5" height="30" as="geometry">
            <mxRectangle width="113.5" height="30" as="alternateBounds" />
          </mxGeometry>
        </mxCell>
        <mxCell id="FPL4rMx5QKKNr9mmE6WW-14" style="shape=tableRow;horizontal=0;startSize=0;swimlaneHead=0;swimlaneBody=0;fillColor=none;collapsible=0;dropTarget=0;points=[[0,0.5],[1,0.5]];portConstraint=eastwest;top=0;left=0;right=0;bottom=0;strokeColor=#5C5570;fontFamily=Verdana;fontColor=#545454;" vertex="1" parent="FPL4rMx5QKKNr9mmE6WW-9">
          <mxGeometry y="62" width="490" height="30" as="geometry" />
        </mxCell>
        <mxCell id="FPL4rMx5QKKNr9mmE6WW-15" style="shape=partialRectangle;connectable=0;fillColor=none;top=0;left=0;bottom=0;right=0;editable=1;overflow=hidden;strokeColor=#5C5570;fontFamily=Verdana;fontColor=#545454;" vertex="1" parent="FPL4rMx5QKKNr9mmE6WW-14">
          <mxGeometry width="30" height="30" as="geometry">
            <mxRectangle width="30" height="30" as="alternateBounds" />
          </mxGeometry>
        </mxCell>
        <mxCell id="FPL4rMx5QKKNr9mmE6WW-16" value="USER_CITY" style="shape=partialRectangle;connectable=0;fillColor=none;top=0;left=0;bottom=0;right=0;align=left;spacingLeft=6;overflow=hidden;strokeColor=#5C5570;fontFamily=Verdana;fontColor=#545454;" vertex="1" parent="FPL4rMx5QKKNr9mmE6WW-14">
          <mxGeometry x="30" width="346.5" height="30" as="geometry">
            <mxRectangle width="346.5" height="30" as="alternateBounds" />
          </mxGeometry>
        </mxCell>
        <mxCell id="FPL4rMx5QKKNr9mmE6WW-17" value="nvarchar(510)" style="shape=partialRectangle;connectable=0;fillColor=none;top=0;left=0;bottom=0;right=0;align=left;spacingLeft=6;overflow=hidden;strokeColor=#5C5570;fontFamily=Verdana;fontColor=#545454;" vertex="1" parent="FPL4rMx5QKKNr9mmE6WW-14">
          <mxGeometry x="376.5" width="113.5" height="30" as="geometry">
            <mxRectangle width="113.5" height="30" as="alternateBounds" />
          </mxGeometry>
        </mxCell>
        <mxCell id="FPL4rMx5QKKNr9mmE6WW-18" style="shape=tableRow;horizontal=0;startSize=0;swimlaneHead=0;swimlaneBody=0;fillColor=none;collapsible=0;dropTarget=0;points=[[0,0.5],[1,0.5]];portConstraint=eastwest;top=0;left=0;right=0;bottom=0;strokeColor=#5C5570;fontFamily=Verdana;fontColor=#545454;" vertex="1" parent="FPL4rMx5QKKNr9mmE6WW-9">
          <mxGeometry y="92" width="490" height="30" as="geometry" />
        </mxCell>
        <mxCell id="FPL4rMx5QKKNr9mmE6WW-19" style="shape=partialRectangle;connectable=0;fillColor=none;top=0;left=0;bottom=0;right=0;editable=1;overflow=hidden;strokeColor=#5C5570;fontFamily=Verdana;fontColor=#545454;" vertex="1" parent="FPL4rMx5QKKNr9mmE6WW-18">
          <mxGeometry width="30" height="30" as="geometry">
            <mxRectangle width="30" height="30" as="alternateBounds" />
          </mxGeometry>
        </mxCell>
        <mxCell id="FPL4rMx5QKKNr9mmE6WW-20" value="x" style="shape=partialRectangle;connectable=0;fillColor=none;top=0;left=0;bottom=0;right=0;align=left;spacingLeft=6;overflow=hidden;strokeColor=#5C5570;fontFamily=Verdana;fontColor=#545454;" vertex="1" parent="FPL4rMx5QKKNr9mmE6WW-18">
          <mxGeometry x="30" width="346.5" height="30" as="geometry">
            <mxRectangle width="346.5" height="30" as="alternateBounds" />
          </mxGeometry>
        </mxCell>
        <mxCell id="FPL4rMx5QKKNr9mmE6WW-21" value="decimal(18,2)" style="shape=partialRectangle;connectable=0;fillColor=none;top=0;left=0;bottom=0;right=0;align=left;spacingLeft=6;overflow=hidden;strokeColor=#5C5570;fontFamily=Verdana;fontColor=#545454;" vertex="1" parent="FPL4rMx5QKKNr9mmE6WW-18">
          <mxGeometry x="376.5" width="113.5" height="30" as="geometry">
            <mxRectangle width="113.5" height="30" as="alternateBounds" />
          </mxGeometry>
        </mxCell>
        <mxCell id="FPL4rMx5QKKNr9mmE6WW-22" value="DimSession" style="shape=table;startSize=32;container=1;collapsible=1;childLayout=tableLayout;fixedRows=1;rowLines=0;fontStyle=1;align=center;resizeLast=1;strokeColor=#5C5570;fontFamily=Verdana;fontColor=#FFFFFF;fillColor=#5F687D;gradientColor=none;" vertex="1" parent="1">
          <mxGeometry x="170" y="270" width="490" height="122" as="geometry" />
        </mxCell>
        <mxCell id="FPL4rMx5QKKNr9mmE6WW-23" value="" style="shape=tableRow;horizontal=0;startSize=0;swimlaneHead=0;swimlaneBody=0;fillColor=none;collapsible=0;dropTarget=0;points=[[0,0.5],[1,0.5]];portConstraint=eastwest;top=0;left=0;right=0;bottom=1;strokeColor=#5C5570;fontFamily=Verdana;fontColor=#545454;" vertex="1" parent="FPL4rMx5QKKNr9mmE6WW-22">
          <mxGeometry y="32" width="490" height="30" as="geometry" />
        </mxCell>
        <mxCell id="FPL4rMx5QKKNr9mmE6WW-24" value="PK" style="shape=partialRectangle;connectable=0;fillColor=none;top=0;left=0;bottom=0;right=0;fontStyle=1;overflow=hidden;strokeColor=#5C5570;fontFamily=Verdana;fontColor=#545454;" vertex="1" parent="FPL4rMx5QKKNr9mmE6WW-23">
          <mxGeometry width="30" height="30" as="geometry">
            <mxRectangle width="30" height="30" as="alternateBounds" />
          </mxGeometry>
        </mxCell>
        <mxCell id="FPL4rMx5QKKNr9mmE6WW-25" value="SESSION_ID" style="shape=partialRectangle;connectable=0;fillColor=none;top=0;left=0;bottom=0;right=0;align=left;spacingLeft=6;fontStyle=5;overflow=hidden;strokeColor=#5C5570;fontFamily=Verdana;fontColor=#545454;" vertex="1" parent="FPL4rMx5QKKNr9mmE6WW-23">
          <mxGeometry x="30" width="346.5" height="30" as="geometry">
            <mxRectangle width="346.5" height="30" as="alternateBounds" />
          </mxGeometry>
        </mxCell>
        <mxCell id="FPL4rMx5QKKNr9mmE6WW-26" value="NUMBER(38,0)" style="shape=partialRectangle;connectable=0;fillColor=none;top=0;left=0;bottom=0;right=0;align=left;spacingLeft=6;fontStyle=5;overflow=hidden;strokeColor=#5C5570;fontFamily=Verdana;fontColor=#545454;" vertex="1" parent="FPL4rMx5QKKNr9mmE6WW-23">
          <mxGeometry x="376.5" width="113.5" height="30" as="geometry">
            <mxRectangle width="113.5" height="30" as="alternateBounds" />
          </mxGeometry>
        </mxCell>
        <mxCell id="FPL4rMx5QKKNr9mmE6WW-27" style="shape=tableRow;horizontal=0;startSize=0;swimlaneHead=0;swimlaneBody=0;fillColor=none;collapsible=0;dropTarget=0;points=[[0,0.5],[1,0.5]];portConstraint=eastwest;top=0;left=0;right=0;bottom=0;strokeColor=#5C5570;fontFamily=Verdana;fontColor=#545454;" vertex="1" parent="FPL4rMx5QKKNr9mmE6WW-22">
          <mxGeometry y="62" width="490" height="30" as="geometry" />
        </mxCell>
        <mxCell id="FPL4rMx5QKKNr9mmE6WW-28" style="shape=partialRectangle;connectable=0;fillColor=none;top=0;left=0;bottom=0;right=0;editable=1;overflow=hidden;strokeColor=#5C5570;fontFamily=Verdana;fontColor=#545454;" vertex="1" parent="FPL4rMx5QKKNr9mmE6WW-27">
          <mxGeometry width="30" height="30" as="geometry">
            <mxRectangle width="30" height="30" as="alternateBounds" />
          </mxGeometry>
        </mxCell>
        <mxCell id="FPL4rMx5QKKNr9mmE6WW-29" value="TIME_SPENT (?)" style="shape=partialRectangle;connectable=0;fillColor=none;top=0;left=0;bottom=0;right=0;align=left;spacingLeft=6;overflow=hidden;strokeColor=#5C5570;fontFamily=Verdana;fontColor=#545454;" vertex="1" parent="FPL4rMx5QKKNr9mmE6WW-27">
          <mxGeometry x="30" width="346.5" height="30" as="geometry">
            <mxRectangle width="346.5" height="30" as="alternateBounds" />
          </mxGeometry>
        </mxCell>
        <mxCell id="FPL4rMx5QKKNr9mmE6WW-30" value="NUMBER(38,0)" style="shape=partialRectangle;connectable=0;fillColor=none;top=0;left=0;bottom=0;right=0;align=left;spacingLeft=6;overflow=hidden;strokeColor=#5C5570;fontFamily=Verdana;fontColor=#545454;fontStyle=0" vertex="1" parent="FPL4rMx5QKKNr9mmE6WW-27">
          <mxGeometry x="376.5" width="113.5" height="30" as="geometry">
            <mxRectangle width="113.5" height="30" as="alternateBounds" />
          </mxGeometry>
        </mxCell>
        <mxCell id="FPL4rMx5QKKNr9mmE6WW-31" style="shape=tableRow;horizontal=0;startSize=0;swimlaneHead=0;swimlaneBody=0;fillColor=none;collapsible=0;dropTarget=0;points=[[0,0.5],[1,0.5]];portConstraint=eastwest;top=0;left=0;right=0;bottom=0;strokeColor=#5C5570;fontFamily=Verdana;fontColor=#545454;" vertex="1" parent="FPL4rMx5QKKNr9mmE6WW-22">
          <mxGeometry y="92" width="490" height="30" as="geometry" />
        </mxCell>
        <mxCell id="FPL4rMx5QKKNr9mmE6WW-32" style="shape=partialRectangle;connectable=0;fillColor=none;top=0;left=0;bottom=0;right=0;editable=1;overflow=hidden;strokeColor=#5C5570;fontFamily=Verdana;fontColor=#545454;" vertex="1" parent="FPL4rMx5QKKNr9mmE6WW-31">
          <mxGeometry width="30" height="30" as="geometry">
            <mxRectangle width="30" height="30" as="alternateBounds" />
          </mxGeometry>
        </mxCell>
        <mxCell id="FPL4rMx5QKKNr9mmE6WW-33" value="x" style="shape=partialRectangle;connectable=0;fillColor=none;top=0;left=0;bottom=0;right=0;align=left;spacingLeft=6;overflow=hidden;strokeColor=#5C5570;fontFamily=Verdana;fontColor=#545454;" vertex="1" parent="FPL4rMx5QKKNr9mmE6WW-31">
          <mxGeometry x="30" width="346.5" height="30" as="geometry">
            <mxRectangle width="346.5" height="30" as="alternateBounds" />
          </mxGeometry>
        </mxCell>
        <mxCell id="FPL4rMx5QKKNr9mmE6WW-34" value="decimal(18,2)" style="shape=partialRectangle;connectable=0;fillColor=none;top=0;left=0;bottom=0;right=0;align=left;spacingLeft=6;overflow=hidden;strokeColor=#5C5570;fontFamily=Verdana;fontColor=#545454;" vertex="1" parent="FPL4rMx5QKKNr9mmE6WW-31">
          <mxGeometry x="376.5" width="113.5" height="30" as="geometry">
            <mxRectangle width="113.5" height="30" as="alternateBounds" />
          </mxGeometry>
        </mxCell>
        <mxCell id="FPL4rMx5QKKNr9mmE6WW-35" value="DimSegment" style="shape=table;startSize=32;container=1;collapsible=1;childLayout=tableLayout;fixedRows=1;rowLines=0;fontStyle=1;align=center;resizeLast=1;strokeColor=#5C5570;fontFamily=Verdana;fontColor=#FFFFFF;fillColor=#5F687D;gradientColor=none;" vertex="1" parent="1">
          <mxGeometry x="170" y="450" width="490" height="122" as="geometry" />
        </mxCell>
        <mxCell id="FPL4rMx5QKKNr9mmE6WW-36" value="" style="shape=tableRow;horizontal=0;startSize=0;swimlaneHead=0;swimlaneBody=0;fillColor=none;collapsible=0;dropTarget=0;points=[[0,0.5],[1,0.5]];portConstraint=eastwest;top=0;left=0;right=0;bottom=1;strokeColor=#5C5570;fontFamily=Verdana;fontColor=#545454;" vertex="1" parent="FPL4rMx5QKKNr9mmE6WW-35">
          <mxGeometry y="32" width="490" height="30" as="geometry" />
        </mxCell>
        <mxCell id="FPL4rMx5QKKNr9mmE6WW-37" value="PK" style="shape=partialRectangle;connectable=0;fillColor=none;top=0;left=0;bottom=0;right=0;fontStyle=1;overflow=hidden;strokeColor=#5C5570;fontFamily=Verdana;fontColor=#545454;" vertex="1" parent="FPL4rMx5QKKNr9mmE6WW-36">
          <mxGeometry width="30" height="30" as="geometry">
            <mxRectangle width="30" height="30" as="alternateBounds" />
          </mxGeometry>
        </mxCell>
        <mxCell id="FPL4rMx5QKKNr9mmE6WW-38" value="SEGMENT_ID" style="shape=partialRectangle;connectable=0;fillColor=none;top=0;left=0;bottom=0;right=0;align=left;spacingLeft=6;fontStyle=5;overflow=hidden;strokeColor=#5C5570;fontFamily=Verdana;fontColor=#545454;" vertex="1" parent="FPL4rMx5QKKNr9mmE6WW-36">
          <mxGeometry x="30" width="346.5" height="30" as="geometry">
            <mxRectangle width="346.5" height="30" as="alternateBounds" />
          </mxGeometry>
        </mxCell>
        <mxCell id="FPL4rMx5QKKNr9mmE6WW-39" value="NUMBER(38,0)" style="shape=partialRectangle;connectable=0;fillColor=none;top=0;left=0;bottom=0;right=0;align=left;spacingLeft=6;fontStyle=5;overflow=hidden;strokeColor=#5C5570;fontFamily=Verdana;fontColor=#545454;" vertex="1" parent="FPL4rMx5QKKNr9mmE6WW-36">
          <mxGeometry x="376.5" width="113.5" height="30" as="geometry">
            <mxRectangle width="113.5" height="30" as="alternateBounds" />
          </mxGeometry>
        </mxCell>
        <mxCell id="FPL4rMx5QKKNr9mmE6WW-40" style="shape=tableRow;horizontal=0;startSize=0;swimlaneHead=0;swimlaneBody=0;fillColor=none;collapsible=0;dropTarget=0;points=[[0,0.5],[1,0.5]];portConstraint=eastwest;top=0;left=0;right=0;bottom=0;strokeColor=#5C5570;fontFamily=Verdana;fontColor=#545454;" vertex="1" parent="FPL4rMx5QKKNr9mmE6WW-35">
          <mxGeometry y="62" width="490" height="30" as="geometry" />
        </mxCell>
        <mxCell id="FPL4rMx5QKKNr9mmE6WW-41" style="shape=partialRectangle;connectable=0;fillColor=none;top=0;left=0;bottom=0;right=0;editable=1;overflow=hidden;strokeColor=#5C5570;fontFamily=Verdana;fontColor=#545454;" vertex="1" parent="FPL4rMx5QKKNr9mmE6WW-40">
          <mxGeometry width="30" height="30" as="geometry">
            <mxRectangle width="30" height="30" as="alternateBounds" />
          </mxGeometry>
        </mxCell>
        <mxCell id="FPL4rMx5QKKNr9mmE6WW-42" value="SEGMENT_DESCRIPTION" style="shape=partialRectangle;connectable=0;fillColor=none;top=0;left=0;bottom=0;right=0;align=left;spacingLeft=6;overflow=hidden;strokeColor=#5C5570;fontFamily=Verdana;fontColor=#545454;" vertex="1" parent="FPL4rMx5QKKNr9mmE6WW-40">
          <mxGeometry x="30" width="346.5" height="30" as="geometry">
            <mxRectangle width="346.5" height="30" as="alternateBounds" />
          </mxGeometry>
        </mxCell>
        <mxCell id="FPL4rMx5QKKNr9mmE6WW-43" value="VARCHAR(100)" style="shape=partialRectangle;connectable=0;fillColor=none;top=0;left=0;bottom=0;right=0;align=left;spacingLeft=6;overflow=hidden;strokeColor=#5C5570;fontFamily=Verdana;fontColor=#545454;" vertex="1" parent="FPL4rMx5QKKNr9mmE6WW-40">
          <mxGeometry x="376.5" width="113.5" height="30" as="geometry">
            <mxRectangle width="113.5" height="30" as="alternateBounds" />
          </mxGeometry>
        </mxCell>
        <mxCell id="FPL4rMx5QKKNr9mmE6WW-44" style="shape=tableRow;horizontal=0;startSize=0;swimlaneHead=0;swimlaneBody=0;fillColor=none;collapsible=0;dropTarget=0;points=[[0,0.5],[1,0.5]];portConstraint=eastwest;top=0;left=0;right=0;bottom=0;strokeColor=#5C5570;fontFamily=Verdana;fontColor=#545454;" vertex="1" parent="FPL4rMx5QKKNr9mmE6WW-35">
          <mxGeometry y="92" width="490" height="30" as="geometry" />
        </mxCell>
        <mxCell id="FPL4rMx5QKKNr9mmE6WW-45" style="shape=partialRectangle;connectable=0;fillColor=none;top=0;left=0;bottom=0;right=0;editable=1;overflow=hidden;strokeColor=#5C5570;fontFamily=Verdana;fontColor=#545454;" vertex="1" parent="FPL4rMx5QKKNr9mmE6WW-44">
          <mxGeometry width="30" height="30" as="geometry">
            <mxRectangle width="30" height="30" as="alternateBounds" />
          </mxGeometry>
        </mxCell>
        <mxCell id="FPL4rMx5QKKNr9mmE6WW-46" value="x" style="shape=partialRectangle;connectable=0;fillColor=none;top=0;left=0;bottom=0;right=0;align=left;spacingLeft=6;overflow=hidden;strokeColor=#5C5570;fontFamily=Verdana;fontColor=#545454;" vertex="1" parent="FPL4rMx5QKKNr9mmE6WW-44">
          <mxGeometry x="30" width="346.5" height="30" as="geometry">
            <mxRectangle width="346.5" height="30" as="alternateBounds" />
          </mxGeometry>
        </mxCell>
        <mxCell id="FPL4rMx5QKKNr9mmE6WW-47" value="decimal(18,2)" style="shape=partialRectangle;connectable=0;fillColor=none;top=0;left=0;bottom=0;right=0;align=left;spacingLeft=6;overflow=hidden;strokeColor=#5C5570;fontFamily=Verdana;fontColor=#545454;" vertex="1" parent="FPL4rMx5QKKNr9mmE6WW-44">
          <mxGeometry x="376.5" width="113.5" height="30" as="geometry">
            <mxRectangle width="113.5" height="30" as="alternateBounds" />
          </mxGeometry>
        </mxCell>
        <mxCell id="FPL4rMx5QKKNr9mmE6WW-48" value="DimTime (?)" style="shape=table;startSize=32;container=1;collapsible=1;childLayout=tableLayout;fixedRows=1;rowLines=0;fontStyle=1;align=center;resizeLast=1;strokeColor=#5C5570;fontFamily=Verdana;fontColor=#FFFFFF;fillColor=#5F687D;gradientColor=none;" vertex="1" parent="1">
          <mxGeometry x="1275" y="90" width="490" height="182" as="geometry" />
        </mxCell>
        <mxCell id="FPL4rMx5QKKNr9mmE6WW-49" value="" style="shape=tableRow;horizontal=0;startSize=0;swimlaneHead=0;swimlaneBody=0;fillColor=none;collapsible=0;dropTarget=0;points=[[0,0.5],[1,0.5]];portConstraint=eastwest;top=0;left=0;right=0;bottom=1;strokeColor=#5C5570;fontFamily=Verdana;fontColor=#545454;" vertex="1" parent="FPL4rMx5QKKNr9mmE6WW-48">
          <mxGeometry y="32" width="490" height="30" as="geometry" />
        </mxCell>
        <mxCell id="FPL4rMx5QKKNr9mmE6WW-50" value="PK" style="shape=partialRectangle;connectable=0;fillColor=none;top=0;left=0;bottom=0;right=0;fontStyle=1;overflow=hidden;strokeColor=#5C5570;fontFamily=Verdana;fontColor=#545454;" vertex="1" parent="FPL4rMx5QKKNr9mmE6WW-49">
          <mxGeometry width="30" height="30" as="geometry">
            <mxRectangle width="30" height="30" as="alternateBounds" />
          </mxGeometry>
        </mxCell>
        <mxCell id="FPL4rMx5QKKNr9mmE6WW-51" value="TIME_ID" style="shape=partialRectangle;connectable=0;fillColor=none;top=0;left=0;bottom=0;right=0;align=left;spacingLeft=6;fontStyle=5;overflow=hidden;strokeColor=#5C5570;fontFamily=Verdana;fontColor=#545454;" vertex="1" parent="FPL4rMx5QKKNr9mmE6WW-49">
          <mxGeometry x="30" width="346.5" height="30" as="geometry">
            <mxRectangle width="346.5" height="30" as="alternateBounds" />
          </mxGeometry>
        </mxCell>
        <mxCell id="FPL4rMx5QKKNr9mmE6WW-52" value="NUMBER(38,0)" style="shape=partialRectangle;connectable=0;fillColor=none;top=0;left=0;bottom=0;right=0;align=left;spacingLeft=6;fontStyle=5;overflow=hidden;strokeColor=#5C5570;fontFamily=Verdana;fontColor=#545454;" vertex="1" parent="FPL4rMx5QKKNr9mmE6WW-49">
          <mxGeometry x="376.5" width="113.5" height="30" as="geometry">
            <mxRectangle width="113.5" height="30" as="alternateBounds" />
          </mxGeometry>
        </mxCell>
        <mxCell id="FPL4rMx5QKKNr9mmE6WW-53" style="shape=tableRow;horizontal=0;startSize=0;swimlaneHead=0;swimlaneBody=0;fillColor=none;collapsible=0;dropTarget=0;points=[[0,0.5],[1,0.5]];portConstraint=eastwest;top=0;left=0;right=0;bottom=0;strokeColor=#5C5570;fontFamily=Verdana;fontColor=#545454;" vertex="1" parent="FPL4rMx5QKKNr9mmE6WW-48">
          <mxGeometry y="62" width="490" height="30" as="geometry" />
        </mxCell>
        <mxCell id="FPL4rMx5QKKNr9mmE6WW-54" style="shape=partialRectangle;connectable=0;fillColor=none;top=0;left=0;bottom=0;right=0;editable=1;overflow=hidden;strokeColor=#5C5570;fontFamily=Verdana;fontColor=#545454;" vertex="1" parent="FPL4rMx5QKKNr9mmE6WW-53">
          <mxGeometry width="30" height="30" as="geometry">
            <mxRectangle width="30" height="30" as="alternateBounds" />
          </mxGeometry>
        </mxCell>
        <mxCell id="FPL4rMx5QKKNr9mmE6WW-55" value="TIME_SPENT" style="shape=partialRectangle;connectable=0;fillColor=none;top=0;left=0;bottom=0;right=0;align=left;spacingLeft=6;overflow=hidden;strokeColor=#5C5570;fontFamily=Verdana;fontColor=#545454;" vertex="1" parent="FPL4rMx5QKKNr9mmE6WW-53">
          <mxGeometry x="30" width="346.5" height="30" as="geometry">
            <mxRectangle width="346.5" height="30" as="alternateBounds" />
          </mxGeometry>
        </mxCell>
        <mxCell id="FPL4rMx5QKKNr9mmE6WW-56" value="NUMBER(38,0)" style="shape=partialRectangle;connectable=0;fillColor=none;top=0;left=0;bottom=0;right=0;align=left;spacingLeft=6;overflow=hidden;strokeColor=#5C5570;fontFamily=Verdana;fontColor=#545454;fontStyle=0" vertex="1" parent="FPL4rMx5QKKNr9mmE6WW-53">
          <mxGeometry x="376.5" width="113.5" height="30" as="geometry">
            <mxRectangle width="113.5" height="30" as="alternateBounds" />
          </mxGeometry>
        </mxCell>
        <mxCell id="FPL4rMx5QKKNr9mmE6WW-57" style="shape=tableRow;horizontal=0;startSize=0;swimlaneHead=0;swimlaneBody=0;fillColor=none;collapsible=0;dropTarget=0;points=[[0,0.5],[1,0.5]];portConstraint=eastwest;top=0;left=0;right=0;bottom=0;strokeColor=#5C5570;fontFamily=Verdana;fontColor=#545454;" vertex="1" parent="FPL4rMx5QKKNr9mmE6WW-48">
          <mxGeometry y="92" width="490" height="30" as="geometry" />
        </mxCell>
        <mxCell id="FPL4rMx5QKKNr9mmE6WW-58" style="shape=partialRectangle;connectable=0;fillColor=none;top=0;left=0;bottom=0;right=0;editable=1;overflow=hidden;strokeColor=#5C5570;fontFamily=Verdana;fontColor=#545454;" vertex="1" parent="FPL4rMx5QKKNr9mmE6WW-57">
          <mxGeometry width="30" height="30" as="geometry">
            <mxRectangle width="30" height="30" as="alternateBounds" />
          </mxGeometry>
        </mxCell>
        <mxCell id="FPL4rMx5QKKNr9mmE6WW-59" value="HOURS" style="shape=partialRectangle;connectable=0;fillColor=none;top=0;left=0;bottom=0;right=0;align=left;spacingLeft=6;overflow=hidden;strokeColor=#5C5570;fontFamily=Verdana;fontColor=#545454;" vertex="1" parent="FPL4rMx5QKKNr9mmE6WW-57">
          <mxGeometry x="30" width="346.5" height="30" as="geometry">
            <mxRectangle width="346.5" height="30" as="alternateBounds" />
          </mxGeometry>
        </mxCell>
        <mxCell id="FPL4rMx5QKKNr9mmE6WW-60" value="NUMBER(38,0)" style="shape=partialRectangle;connectable=0;fillColor=none;top=0;left=0;bottom=0;right=0;align=left;spacingLeft=6;overflow=hidden;strokeColor=#5C5570;fontFamily=Verdana;fontColor=#545454;" vertex="1" parent="FPL4rMx5QKKNr9mmE6WW-57">
          <mxGeometry x="376.5" width="113.5" height="30" as="geometry">
            <mxRectangle width="113.5" height="30" as="alternateBounds" />
          </mxGeometry>
        </mxCell>
        <mxCell id="FPL4rMx5QKKNr9mmE6WW-61" style="shape=tableRow;horizontal=0;startSize=0;swimlaneHead=0;swimlaneBody=0;fillColor=none;collapsible=0;dropTarget=0;points=[[0,0.5],[1,0.5]];portConstraint=eastwest;top=0;left=0;right=0;bottom=0;strokeColor=#5C5570;fontFamily=Verdana;fontColor=#545454;" vertex="1" parent="FPL4rMx5QKKNr9mmE6WW-48">
          <mxGeometry y="122" width="490" height="30" as="geometry" />
        </mxCell>
        <mxCell id="FPL4rMx5QKKNr9mmE6WW-62" style="shape=partialRectangle;connectable=0;fillColor=none;top=0;left=0;bottom=0;right=0;editable=1;overflow=hidden;strokeColor=#5C5570;fontFamily=Verdana;fontColor=#545454;" vertex="1" parent="FPL4rMx5QKKNr9mmE6WW-61">
          <mxGeometry width="30" height="30" as="geometry">
            <mxRectangle width="30" height="30" as="alternateBounds" />
          </mxGeometry>
        </mxCell>
        <mxCell id="FPL4rMx5QKKNr9mmE6WW-63" value="MINUTES" style="shape=partialRectangle;connectable=0;fillColor=none;top=0;left=0;bottom=0;right=0;align=left;spacingLeft=6;overflow=hidden;strokeColor=#5C5570;fontFamily=Verdana;fontColor=#545454;" vertex="1" parent="FPL4rMx5QKKNr9mmE6WW-61">
          <mxGeometry x="30" width="346.5" height="30" as="geometry">
            <mxRectangle width="346.5" height="30" as="alternateBounds" />
          </mxGeometry>
        </mxCell>
        <mxCell id="FPL4rMx5QKKNr9mmE6WW-64" value="NUMBER(38,0)" style="shape=partialRectangle;connectable=0;fillColor=none;top=0;left=0;bottom=0;right=0;align=left;spacingLeft=6;overflow=hidden;strokeColor=#5C5570;fontFamily=Verdana;fontColor=#545454;" vertex="1" parent="FPL4rMx5QKKNr9mmE6WW-61">
          <mxGeometry x="376.5" width="113.5" height="30" as="geometry">
            <mxRectangle width="113.5" height="30" as="alternateBounds" />
          </mxGeometry>
        </mxCell>
        <mxCell id="FPL4rMx5QKKNr9mmE6WW-65" style="shape=tableRow;horizontal=0;startSize=0;swimlaneHead=0;swimlaneBody=0;fillColor=none;collapsible=0;dropTarget=0;points=[[0,0.5],[1,0.5]];portConstraint=eastwest;top=0;left=0;right=0;bottom=0;strokeColor=#5C5570;fontFamily=Verdana;fontColor=#545454;" vertex="1" parent="FPL4rMx5QKKNr9mmE6WW-48">
          <mxGeometry y="152" width="490" height="30" as="geometry" />
        </mxCell>
        <mxCell id="FPL4rMx5QKKNr9mmE6WW-66" style="shape=partialRectangle;connectable=0;fillColor=none;top=0;left=0;bottom=0;right=0;editable=1;overflow=hidden;strokeColor=#5C5570;fontFamily=Verdana;fontColor=#545454;" vertex="1" parent="FPL4rMx5QKKNr9mmE6WW-65">
          <mxGeometry width="30" height="30" as="geometry">
            <mxRectangle width="30" height="30" as="alternateBounds" />
          </mxGeometry>
        </mxCell>
        <mxCell id="FPL4rMx5QKKNr9mmE6WW-67" value="SECONDS" style="shape=partialRectangle;connectable=0;fillColor=none;top=0;left=0;bottom=0;right=0;align=left;spacingLeft=6;overflow=hidden;strokeColor=#5C5570;fontFamily=Verdana;fontColor=#545454;" vertex="1" parent="FPL4rMx5QKKNr9mmE6WW-65">
          <mxGeometry x="30" width="346.5" height="30" as="geometry">
            <mxRectangle width="346.5" height="30" as="alternateBounds" />
          </mxGeometry>
        </mxCell>
        <mxCell id="FPL4rMx5QKKNr9mmE6WW-68" value="NUMBER(38,0)" style="shape=partialRectangle;connectable=0;fillColor=none;top=0;left=0;bottom=0;right=0;align=left;spacingLeft=6;overflow=hidden;strokeColor=#5C5570;fontFamily=Verdana;fontColor=#545454;" vertex="1" parent="FPL4rMx5QKKNr9mmE6WW-65">
          <mxGeometry x="376.5" width="113.5" height="30" as="geometry">
            <mxRectangle width="113.5" height="30" as="alternateBounds" />
          </mxGeometry>
        </mxCell>
        <mxCell id="FPL4rMx5QKKNr9mmE6WW-69" value="DimDevice" style="shape=table;startSize=32;container=1;collapsible=1;childLayout=tableLayout;fixedRows=1;rowLines=0;fontStyle=1;align=center;resizeLast=1;strokeColor=#5C5570;fontFamily=Verdana;fontColor=#FFFFFF;fillColor=#5F687D;gradientColor=none;" vertex="1" parent="1">
          <mxGeometry x="1275" y="480" width="490" height="152" as="geometry" />
        </mxCell>
        <mxCell id="FPL4rMx5QKKNr9mmE6WW-70" value="" style="shape=tableRow;horizontal=0;startSize=0;swimlaneHead=0;swimlaneBody=0;fillColor=none;collapsible=0;dropTarget=0;points=[[0,0.5],[1,0.5]];portConstraint=eastwest;top=0;left=0;right=0;bottom=1;strokeColor=#5C5570;fontFamily=Verdana;fontColor=#545454;" vertex="1" parent="FPL4rMx5QKKNr9mmE6WW-69">
          <mxGeometry y="32" width="490" height="30" as="geometry" />
        </mxCell>
        <mxCell id="FPL4rMx5QKKNr9mmE6WW-71" value="PK" style="shape=partialRectangle;connectable=0;fillColor=none;top=0;left=0;bottom=0;right=0;fontStyle=1;overflow=hidden;strokeColor=#5C5570;fontFamily=Verdana;fontColor=#545454;" vertex="1" parent="FPL4rMx5QKKNr9mmE6WW-70">
          <mxGeometry width="30" height="30" as="geometry">
            <mxRectangle width="30" height="30" as="alternateBounds" />
          </mxGeometry>
        </mxCell>
        <mxCell id="FPL4rMx5QKKNr9mmE6WW-72" value="DEVICE_ID" style="shape=partialRectangle;connectable=0;fillColor=none;top=0;left=0;bottom=0;right=0;align=left;spacingLeft=6;fontStyle=5;overflow=hidden;strokeColor=#5C5570;fontFamily=Verdana;fontColor=#545454;" vertex="1" parent="FPL4rMx5QKKNr9mmE6WW-70">
          <mxGeometry x="30" width="346.5" height="30" as="geometry">
            <mxRectangle width="346.5" height="30" as="alternateBounds" />
          </mxGeometry>
        </mxCell>
        <mxCell id="FPL4rMx5QKKNr9mmE6WW-73" value="NUMBER(38,0)" style="shape=partialRectangle;connectable=0;fillColor=none;top=0;left=0;bottom=0;right=0;align=left;spacingLeft=6;fontStyle=5;overflow=hidden;strokeColor=#5C5570;fontFamily=Verdana;fontColor=#545454;" vertex="1" parent="FPL4rMx5QKKNr9mmE6WW-70">
          <mxGeometry x="376.5" width="113.5" height="30" as="geometry">
            <mxRectangle width="113.5" height="30" as="alternateBounds" />
          </mxGeometry>
        </mxCell>
        <mxCell id="FPL4rMx5QKKNr9mmE6WW-74" style="shape=tableRow;horizontal=0;startSize=0;swimlaneHead=0;swimlaneBody=0;fillColor=none;collapsible=0;dropTarget=0;points=[[0,0.5],[1,0.5]];portConstraint=eastwest;top=0;left=0;right=0;bottom=0;strokeColor=#5C5570;fontFamily=Verdana;fontColor=#545454;" vertex="1" parent="FPL4rMx5QKKNr9mmE6WW-69">
          <mxGeometry y="62" width="490" height="30" as="geometry" />
        </mxCell>
        <mxCell id="FPL4rMx5QKKNr9mmE6WW-75" style="shape=partialRectangle;connectable=0;fillColor=none;top=0;left=0;bottom=0;right=0;editable=1;overflow=hidden;strokeColor=#5C5570;fontFamily=Verdana;fontColor=#545454;" vertex="1" parent="FPL4rMx5QKKNr9mmE6WW-74">
          <mxGeometry width="30" height="30" as="geometry">
            <mxRectangle width="30" height="30" as="alternateBounds" />
          </mxGeometry>
        </mxCell>
        <mxCell id="FPL4rMx5QKKNr9mmE6WW-76" value="DEVICE_BORWSER" style="shape=partialRectangle;connectable=0;fillColor=none;top=0;left=0;bottom=0;right=0;align=left;spacingLeft=6;overflow=hidden;strokeColor=#5C5570;fontFamily=Verdana;fontColor=#545454;" vertex="1" parent="FPL4rMx5QKKNr9mmE6WW-74">
          <mxGeometry x="30" width="346.5" height="30" as="geometry">
            <mxRectangle width="346.5" height="30" as="alternateBounds" />
          </mxGeometry>
        </mxCell>
        <mxCell id="FPL4rMx5QKKNr9mmE6WW-77" value="VARCHAR(10)" style="shape=partialRectangle;connectable=0;fillColor=none;top=0;left=0;bottom=0;right=0;align=left;spacingLeft=6;overflow=hidden;strokeColor=#5C5570;fontFamily=Verdana;fontColor=#545454;" vertex="1" parent="FPL4rMx5QKKNr9mmE6WW-74">
          <mxGeometry x="376.5" width="113.5" height="30" as="geometry">
            <mxRectangle width="113.5" height="30" as="alternateBounds" />
          </mxGeometry>
        </mxCell>
        <mxCell id="FPL4rMx5QKKNr9mmE6WW-78" style="shape=tableRow;horizontal=0;startSize=0;swimlaneHead=0;swimlaneBody=0;fillColor=none;collapsible=0;dropTarget=0;points=[[0,0.5],[1,0.5]];portConstraint=eastwest;top=0;left=0;right=0;bottom=0;strokeColor=#5C5570;fontFamily=Verdana;fontColor=#545454;" vertex="1" parent="FPL4rMx5QKKNr9mmE6WW-69">
          <mxGeometry y="92" width="490" height="30" as="geometry" />
        </mxCell>
        <mxCell id="FPL4rMx5QKKNr9mmE6WW-79" style="shape=partialRectangle;connectable=0;fillColor=none;top=0;left=0;bottom=0;right=0;editable=1;overflow=hidden;strokeColor=#5C5570;fontFamily=Verdana;fontColor=#545454;" vertex="1" parent="FPL4rMx5QKKNr9mmE6WW-78">
          <mxGeometry width="30" height="30" as="geometry">
            <mxRectangle width="30" height="30" as="alternateBounds" />
          </mxGeometry>
        </mxCell>
        <mxCell id="FPL4rMx5QKKNr9mmE6WW-80" value="DEVICE_OS" style="shape=partialRectangle;connectable=0;fillColor=none;top=0;left=0;bottom=0;right=0;align=left;spacingLeft=6;overflow=hidden;strokeColor=#5C5570;fontFamily=Verdana;fontColor=#545454;" vertex="1" parent="FPL4rMx5QKKNr9mmE6WW-78">
          <mxGeometry x="30" width="346.5" height="30" as="geometry">
            <mxRectangle width="346.5" height="30" as="alternateBounds" />
          </mxGeometry>
        </mxCell>
        <mxCell id="FPL4rMx5QKKNr9mmE6WW-81" value="VARCHAR(5)" style="shape=partialRectangle;connectable=0;fillColor=none;top=0;left=0;bottom=0;right=0;align=left;spacingLeft=6;overflow=hidden;strokeColor=#5C5570;fontFamily=Verdana;fontColor=#545454;" vertex="1" parent="FPL4rMx5QKKNr9mmE6WW-78">
          <mxGeometry x="376.5" width="113.5" height="30" as="geometry">
            <mxRectangle width="113.5" height="30" as="alternateBounds" />
          </mxGeometry>
        </mxCell>
        <mxCell id="FPL4rMx5QKKNr9mmE6WW-82" style="shape=tableRow;horizontal=0;startSize=0;swimlaneHead=0;swimlaneBody=0;fillColor=none;collapsible=0;dropTarget=0;points=[[0,0.5],[1,0.5]];portConstraint=eastwest;top=0;left=0;right=0;bottom=0;strokeColor=#5C5570;fontFamily=Verdana;fontColor=#545454;" vertex="1" parent="FPL4rMx5QKKNr9mmE6WW-69">
          <mxGeometry y="122" width="490" height="30" as="geometry" />
        </mxCell>
        <mxCell id="FPL4rMx5QKKNr9mmE6WW-83" style="shape=partialRectangle;connectable=0;fillColor=none;top=0;left=0;bottom=0;right=0;editable=1;overflow=hidden;strokeColor=#5C5570;fontFamily=Verdana;fontColor=#545454;" vertex="1" parent="FPL4rMx5QKKNr9mmE6WW-82">
          <mxGeometry width="30" height="30" as="geometry">
            <mxRectangle width="30" height="30" as="alternateBounds" />
          </mxGeometry>
        </mxCell>
        <mxCell id="FPL4rMx5QKKNr9mmE6WW-84" value="DEVICE_MOBILE" style="shape=partialRectangle;connectable=0;fillColor=none;top=0;left=0;bottom=0;right=0;align=left;spacingLeft=6;overflow=hidden;strokeColor=#5C5570;fontFamily=Verdana;fontColor=#545454;" vertex="1" parent="FPL4rMx5QKKNr9mmE6WW-82">
          <mxGeometry x="30" width="346.5" height="30" as="geometry">
            <mxRectangle width="346.5" height="30" as="alternateBounds" />
          </mxGeometry>
        </mxCell>
        <mxCell id="FPL4rMx5QKKNr9mmE6WW-85" value="VARCHAR(10)" style="shape=partialRectangle;connectable=0;fillColor=none;top=0;left=0;bottom=0;right=0;align=left;spacingLeft=6;overflow=hidden;strokeColor=#5C5570;fontFamily=Verdana;fontColor=#545454;" vertex="1" parent="FPL4rMx5QKKNr9mmE6WW-82">
          <mxGeometry x="376.5" width="113.5" height="30" as="geometry">
            <mxRectangle width="113.5" height="30" as="alternateBounds" />
          </mxGeometry>
        </mxCell>
        <mxCell id="FPL4rMx5QKKNr9mmE6WW-86" value="DimEvent" style="shape=table;startSize=32;container=1;collapsible=1;childLayout=tableLayout;fixedRows=1;rowLines=0;fontStyle=1;align=center;resizeLast=1;strokeColor=#5C5570;fontFamily=Verdana;fontColor=#FFFFFF;fillColor=#5F687D;gradientColor=none;" vertex="1" parent="1">
          <mxGeometry x="1275" y="310" width="396.5" height="122" as="geometry" />
        </mxCell>
        <mxCell id="FPL4rMx5QKKNr9mmE6WW-87" value="" style="shape=tableRow;horizontal=0;startSize=0;swimlaneHead=0;swimlaneBody=0;fillColor=none;collapsible=0;dropTarget=0;points=[[0,0.5],[1,0.5]];portConstraint=eastwest;top=0;left=0;right=0;bottom=1;strokeColor=#5C5570;fontFamily=Verdana;fontColor=#545454;" vertex="1" parent="FPL4rMx5QKKNr9mmE6WW-86">
          <mxGeometry y="32" width="396.5" height="30" as="geometry" />
        </mxCell>
        <mxCell id="FPL4rMx5QKKNr9mmE6WW-88" value="PK" style="shape=partialRectangle;connectable=0;fillColor=none;top=0;left=0;bottom=0;right=0;fontStyle=1;overflow=hidden;strokeColor=#5C5570;fontFamily=Verdana;fontColor=#545454;" vertex="1" parent="FPL4rMx5QKKNr9mmE6WW-87">
          <mxGeometry width="30" height="30" as="geometry">
            <mxRectangle width="30" height="30" as="alternateBounds" />
          </mxGeometry>
        </mxCell>
        <mxCell id="FPL4rMx5QKKNr9mmE6WW-89" value="EVENT_ID" style="shape=partialRectangle;connectable=0;fillColor=none;top=0;left=0;bottom=0;right=0;align=left;spacingLeft=6;fontStyle=5;overflow=hidden;strokeColor=#5C5570;fontFamily=Verdana;fontColor=#545454;" vertex="1" parent="FPL4rMx5QKKNr9mmE6WW-87">
          <mxGeometry x="30" width="210" height="30" as="geometry">
            <mxRectangle width="210" height="30" as="alternateBounds" />
          </mxGeometry>
        </mxCell>
        <mxCell id="FPL4rMx5QKKNr9mmE6WW-90" value="NUMBER(38,0)" style="shape=partialRectangle;connectable=0;fillColor=none;top=0;left=0;bottom=0;right=0;align=left;spacingLeft=6;fontStyle=5;overflow=hidden;strokeColor=#5C5570;fontFamily=Verdana;fontColor=#545454;" vertex="1" parent="FPL4rMx5QKKNr9mmE6WW-87">
          <mxGeometry x="240" width="156.5" height="30" as="geometry">
            <mxRectangle width="156.5" height="30" as="alternateBounds" />
          </mxGeometry>
        </mxCell>
        <mxCell id="FPL4rMx5QKKNr9mmE6WW-91" style="shape=tableRow;horizontal=0;startSize=0;swimlaneHead=0;swimlaneBody=0;fillColor=none;collapsible=0;dropTarget=0;points=[[0,0.5],[1,0.5]];portConstraint=eastwest;top=0;left=0;right=0;bottom=0;strokeColor=#5C5570;fontFamily=Verdana;fontColor=#545454;" vertex="1" parent="FPL4rMx5QKKNr9mmE6WW-86">
          <mxGeometry y="62" width="396.5" height="30" as="geometry" />
        </mxCell>
        <mxCell id="FPL4rMx5QKKNr9mmE6WW-92" style="shape=partialRectangle;connectable=0;fillColor=none;top=0;left=0;bottom=0;right=0;editable=1;overflow=hidden;strokeColor=#5C5570;fontFamily=Verdana;fontColor=#545454;" vertex="1" parent="FPL4rMx5QKKNr9mmE6WW-91">
          <mxGeometry width="30" height="30" as="geometry">
            <mxRectangle width="30" height="30" as="alternateBounds" />
          </mxGeometry>
        </mxCell>
        <mxCell id="FPL4rMx5QKKNr9mmE6WW-93" value="EVENT_DESCRIPTION" style="shape=partialRectangle;connectable=0;fillColor=none;top=0;left=0;bottom=0;right=0;align=left;spacingLeft=6;overflow=hidden;strokeColor=#5C5570;fontFamily=Verdana;fontColor=#545454;" vertex="1" parent="FPL4rMx5QKKNr9mmE6WW-91">
          <mxGeometry x="30" width="210" height="30" as="geometry">
            <mxRectangle width="210" height="30" as="alternateBounds" />
          </mxGeometry>
        </mxCell>
        <mxCell id="FPL4rMx5QKKNr9mmE6WW-94" value="VARCHAR(100)" style="shape=partialRectangle;connectable=0;fillColor=none;top=0;left=0;bottom=0;right=0;align=left;spacingLeft=6;overflow=hidden;strokeColor=#5C5570;fontFamily=Verdana;fontColor=#545454;" vertex="1" parent="FPL4rMx5QKKNr9mmE6WW-91">
          <mxGeometry x="240" width="156.5" height="30" as="geometry">
            <mxRectangle width="156.5" height="30" as="alternateBounds" />
          </mxGeometry>
        </mxCell>
        <mxCell id="FPL4rMx5QKKNr9mmE6WW-95" style="shape=tableRow;horizontal=0;startSize=0;swimlaneHead=0;swimlaneBody=0;fillColor=none;collapsible=0;dropTarget=0;points=[[0,0.5],[1,0.5]];portConstraint=eastwest;top=0;left=0;right=0;bottom=0;strokeColor=#5C5570;fontFamily=Verdana;fontColor=#545454;" vertex="1" parent="FPL4rMx5QKKNr9mmE6WW-86">
          <mxGeometry y="92" width="396.5" height="30" as="geometry" />
        </mxCell>
        <mxCell id="FPL4rMx5QKKNr9mmE6WW-96" style="shape=partialRectangle;connectable=0;fillColor=none;top=0;left=0;bottom=0;right=0;editable=1;overflow=hidden;strokeColor=#5C5570;fontFamily=Verdana;fontColor=#545454;" vertex="1" parent="FPL4rMx5QKKNr9mmE6WW-95">
          <mxGeometry width="30" height="30" as="geometry">
            <mxRectangle width="30" height="30" as="alternateBounds" />
          </mxGeometry>
        </mxCell>
        <mxCell id="FPL4rMx5QKKNr9mmE6WW-97" value="SERVER_TIME (?)" style="shape=partialRectangle;connectable=0;fillColor=none;top=0;left=0;bottom=0;right=0;align=left;spacingLeft=6;overflow=hidden;strokeColor=#5C5570;fontFamily=Verdana;fontColor=#545454;" vertex="1" parent="FPL4rMx5QKKNr9mmE6WW-95">
          <mxGeometry x="30" width="210" height="30" as="geometry">
            <mxRectangle width="210" height="30" as="alternateBounds" />
          </mxGeometry>
        </mxCell>
        <mxCell id="FPL4rMx5QKKNr9mmE6WW-98" value="TIEMSTAMP" style="shape=partialRectangle;connectable=0;fillColor=none;top=0;left=0;bottom=0;right=0;align=left;spacingLeft=6;overflow=hidden;strokeColor=#5C5570;fontFamily=Verdana;fontColor=#545454;" vertex="1" parent="FPL4rMx5QKKNr9mmE6WW-95">
          <mxGeometry x="240" width="156.5" height="30" as="geometry">
            <mxRectangle width="156.5" height="30" as="alternateBounds" />
          </mxGeometry>
        </mxCell>
        <mxCell id="FPL4rMx5QKKNr9mmE6WW-99" value="NewUsers" style="shape=table;startSize=32;container=1;collapsible=1;childLayout=tableLayout;fixedRows=1;rowLines=0;fontStyle=1;align=center;resizeLast=1;strokeColor=#5C5570;fontFamily=Verdana;fontColor=#FFFFFF;fillColor=#5F687D;gradientColor=none;" vertex="1" parent="1">
          <mxGeometry x="780" y="212" width="396.5" height="118" as="geometry" />
        </mxCell>
        <mxCell id="FPL4rMx5QKKNr9mmE6WW-100" value="" style="shape=tableRow;horizontal=0;startSize=0;swimlaneHead=0;swimlaneBody=0;fillColor=none;collapsible=0;dropTarget=0;points=[[0,0.5],[1,0.5]];portConstraint=eastwest;top=0;left=0;right=0;bottom=1;strokeColor=#5C5570;fontFamily=Verdana;fontColor=#545454;" vertex="1" parent="FPL4rMx5QKKNr9mmE6WW-99">
          <mxGeometry y="32" width="396.5" height="26" as="geometry" />
        </mxCell>
        <mxCell id="FPL4rMx5QKKNr9mmE6WW-101" value="FK" style="shape=partialRectangle;connectable=0;fillColor=none;top=0;left=0;bottom=0;right=0;fontStyle=1;overflow=hidden;strokeColor=#5C5570;fontFamily=Verdana;fontColor=#545454;" vertex="1" parent="FPL4rMx5QKKNr9mmE6WW-100">
          <mxGeometry width="30" height="26" as="geometry">
            <mxRectangle width="30" height="26" as="alternateBounds" />
          </mxGeometry>
        </mxCell>
        <mxCell id="FPL4rMx5QKKNr9mmE6WW-102" value="EVENT_ID" style="shape=partialRectangle;connectable=0;fillColor=none;top=0;left=0;bottom=0;right=0;align=left;spacingLeft=6;fontStyle=5;overflow=hidden;strokeColor=#5C5570;fontFamily=Verdana;fontColor=#545454;" vertex="1" parent="FPL4rMx5QKKNr9mmE6WW-100">
          <mxGeometry x="30" width="210" height="26" as="geometry">
            <mxRectangle width="210" height="26" as="alternateBounds" />
          </mxGeometry>
        </mxCell>
        <mxCell id="FPL4rMx5QKKNr9mmE6WW-103" value="NUMBER(38,0)" style="shape=partialRectangle;connectable=0;fillColor=none;top=0;left=0;bottom=0;right=0;align=left;spacingLeft=6;fontStyle=5;overflow=hidden;strokeColor=#5C5570;fontFamily=Verdana;fontColor=#545454;" vertex="1" parent="FPL4rMx5QKKNr9mmE6WW-100">
          <mxGeometry x="240" width="156.5" height="26" as="geometry">
            <mxRectangle width="156.5" height="26" as="alternateBounds" />
          </mxGeometry>
        </mxCell>
        <mxCell id="FPL4rMx5QKKNr9mmE6WW-104" style="shape=tableRow;horizontal=0;startSize=0;swimlaneHead=0;swimlaneBody=0;fillColor=none;collapsible=0;dropTarget=0;points=[[0,0.5],[1,0.5]];portConstraint=eastwest;top=0;left=0;right=0;bottom=0;strokeColor=#5C5570;fontFamily=Verdana;fontColor=#545454;" vertex="1" parent="FPL4rMx5QKKNr9mmE6WW-99">
          <mxGeometry y="58" width="396.5" height="30" as="geometry" />
        </mxCell>
        <mxCell id="FPL4rMx5QKKNr9mmE6WW-105" value="FK" style="shape=partialRectangle;connectable=0;fillColor=none;top=0;left=0;bottom=0;right=0;editable=1;overflow=hidden;strokeColor=#5C5570;fontFamily=Verdana;fontColor=#545454;fontStyle=1" vertex="1" parent="FPL4rMx5QKKNr9mmE6WW-104">
          <mxGeometry width="30" height="30" as="geometry">
            <mxRectangle width="30" height="30" as="alternateBounds" />
          </mxGeometry>
        </mxCell>
        <mxCell id="FPL4rMx5QKKNr9mmE6WW-106" value="USER_ID" style="shape=partialRectangle;connectable=0;fillColor=none;top=0;left=0;bottom=0;right=0;align=left;spacingLeft=6;overflow=hidden;strokeColor=#5C5570;fontFamily=Verdana;fontColor=#545454;fontStyle=1" vertex="1" parent="FPL4rMx5QKKNr9mmE6WW-104">
          <mxGeometry x="30" width="210" height="30" as="geometry">
            <mxRectangle width="210" height="30" as="alternateBounds" />
          </mxGeometry>
        </mxCell>
        <mxCell id="FPL4rMx5QKKNr9mmE6WW-107" value="NUMBER(38,0)" style="shape=partialRectangle;connectable=0;fillColor=none;top=0;left=0;bottom=0;right=0;align=left;spacingLeft=6;overflow=hidden;strokeColor=#5C5570;fontFamily=Verdana;fontColor=#545454;fontStyle=1" vertex="1" parent="FPL4rMx5QKKNr9mmE6WW-104">
          <mxGeometry x="240" width="156.5" height="30" as="geometry">
            <mxRectangle width="156.5" height="30" as="alternateBounds" />
          </mxGeometry>
        </mxCell>
        <mxCell id="FPL4rMx5QKKNr9mmE6WW-108" style="shape=tableRow;horizontal=0;startSize=0;swimlaneHead=0;swimlaneBody=0;fillColor=none;collapsible=0;dropTarget=0;points=[[0,0.5],[1,0.5]];portConstraint=eastwest;top=0;left=0;right=0;bottom=0;strokeColor=#5C5570;fontFamily=Verdana;fontColor=#545454;" vertex="1" parent="FPL4rMx5QKKNr9mmE6WW-99">
          <mxGeometry y="88" width="396.5" height="30" as="geometry" />
        </mxCell>
        <mxCell id="FPL4rMx5QKKNr9mmE6WW-109" style="shape=partialRectangle;connectable=0;fillColor=none;top=0;left=0;bottom=0;right=0;editable=1;overflow=hidden;strokeColor=#5C5570;fontFamily=Verdana;fontColor=#545454;" vertex="1" parent="FPL4rMx5QKKNr9mmE6WW-108">
          <mxGeometry width="30" height="30" as="geometry">
            <mxRectangle width="30" height="30" as="alternateBounds" />
          </mxGeometry>
        </mxCell>
        <mxCell id="FPL4rMx5QKKNr9mmE6WW-110" value="x" style="shape=partialRectangle;connectable=0;fillColor=none;top=0;left=0;bottom=0;right=0;align=left;spacingLeft=6;overflow=hidden;strokeColor=#5C5570;fontFamily=Verdana;fontColor=#545454;" vertex="1" parent="FPL4rMx5QKKNr9mmE6WW-108">
          <mxGeometry x="30" width="210" height="30" as="geometry">
            <mxRectangle width="210" height="30" as="alternateBounds" />
          </mxGeometry>
        </mxCell>
        <mxCell id="FPL4rMx5QKKNr9mmE6WW-111" value="decimal(18,2)" style="shape=partialRectangle;connectable=0;fillColor=none;top=0;left=0;bottom=0;right=0;align=left;spacingLeft=6;overflow=hidden;strokeColor=#5C5570;fontFamily=Verdana;fontColor=#545454;" vertex="1" parent="FPL4rMx5QKKNr9mmE6WW-108">
          <mxGeometry x="240" width="156.5" height="30" as="geometry">
            <mxRectangle width="156.5" height="30" as="alternateBounds" />
          </mxGeometry>
        </mxCell>
        <mxCell id="FPL4rMx5QKKNr9mmE6WW-112" value="FactUserActivity" style="shape=table;startSize=32;container=1;collapsible=1;childLayout=tableLayout;fixedRows=1;rowLines=0;fontStyle=1;align=center;resizeLast=1;strokeColor=#5C5570;fontFamily=Verdana;fontColor=#FFFFFF;fillColor=#5F687D;gradientColor=none;" vertex="1" parent="1">
          <mxGeometry x="780" y="398" width="396.5" height="212" as="geometry" />
        </mxCell>
        <mxCell id="FPL4rMx5QKKNr9mmE6WW-113" value="" style="shape=tableRow;horizontal=0;startSize=0;swimlaneHead=0;swimlaneBody=0;fillColor=none;collapsible=0;dropTarget=0;points=[[0,0.5],[1,0.5]];portConstraint=eastwest;top=0;left=0;right=0;bottom=1;strokeColor=#5C5570;fontFamily=Verdana;fontColor=#545454;" vertex="1" parent="FPL4rMx5QKKNr9mmE6WW-112">
          <mxGeometry y="32" width="396.5" height="30" as="geometry" />
        </mxCell>
        <mxCell id="FPL4rMx5QKKNr9mmE6WW-114" value="FK" style="shape=partialRectangle;connectable=0;fillColor=none;top=0;left=0;bottom=0;right=0;fontStyle=1;overflow=hidden;strokeColor=#5C5570;fontFamily=Verdana;fontColor=#545454;" vertex="1" parent="FPL4rMx5QKKNr9mmE6WW-113">
          <mxGeometry width="30" height="30" as="geometry">
            <mxRectangle width="30" height="30" as="alternateBounds" />
          </mxGeometry>
        </mxCell>
        <mxCell id="FPL4rMx5QKKNr9mmE6WW-115" value="EVENT_ID" style="shape=partialRectangle;connectable=0;fillColor=none;top=0;left=0;bottom=0;right=0;align=left;spacingLeft=6;fontStyle=5;overflow=hidden;strokeColor=#5C5570;fontFamily=Verdana;fontColor=#545454;" vertex="1" parent="FPL4rMx5QKKNr9mmE6WW-113">
          <mxGeometry x="30" width="210" height="30" as="geometry">
            <mxRectangle width="210" height="30" as="alternateBounds" />
          </mxGeometry>
        </mxCell>
        <mxCell id="FPL4rMx5QKKNr9mmE6WW-116" value="NUMBER(38,0)" style="shape=partialRectangle;connectable=0;fillColor=none;top=0;left=0;bottom=0;right=0;align=left;spacingLeft=6;fontStyle=5;overflow=hidden;strokeColor=#5C5570;fontFamily=Verdana;fontColor=#545454;" vertex="1" parent="FPL4rMx5QKKNr9mmE6WW-113">
          <mxGeometry x="240" width="156.5" height="30" as="geometry">
            <mxRectangle width="156.5" height="30" as="alternateBounds" />
          </mxGeometry>
        </mxCell>
        <mxCell id="FPL4rMx5QKKNr9mmE6WW-117" style="shape=tableRow;horizontal=0;startSize=0;swimlaneHead=0;swimlaneBody=0;fillColor=none;collapsible=0;dropTarget=0;points=[[0,0.5],[1,0.5]];portConstraint=eastwest;top=0;left=0;right=0;bottom=0;strokeColor=#5C5570;fontFamily=Verdana;fontColor=#545454;" vertex="1" parent="FPL4rMx5QKKNr9mmE6WW-112">
          <mxGeometry y="62" width="396.5" height="30" as="geometry" />
        </mxCell>
        <mxCell id="FPL4rMx5QKKNr9mmE6WW-118" value="FK" style="shape=partialRectangle;connectable=0;fillColor=none;top=0;left=0;bottom=0;right=0;editable=1;overflow=hidden;strokeColor=#5C5570;fontFamily=Verdana;fontColor=#545454;fontStyle=1" vertex="1" parent="FPL4rMx5QKKNr9mmE6WW-117">
          <mxGeometry width="30" height="30" as="geometry">
            <mxRectangle width="30" height="30" as="alternateBounds" />
          </mxGeometry>
        </mxCell>
        <mxCell id="FPL4rMx5QKKNr9mmE6WW-119" value="USER_ID" style="shape=partialRectangle;connectable=0;fillColor=none;top=0;left=0;bottom=0;right=0;align=left;spacingLeft=6;overflow=hidden;strokeColor=#5C5570;fontFamily=Verdana;fontColor=#545454;fontStyle=1" vertex="1" parent="FPL4rMx5QKKNr9mmE6WW-117">
          <mxGeometry x="30" width="210" height="30" as="geometry">
            <mxRectangle width="210" height="30" as="alternateBounds" />
          </mxGeometry>
        </mxCell>
        <mxCell id="FPL4rMx5QKKNr9mmE6WW-120" value="NUMBER(38,0)" style="shape=partialRectangle;connectable=0;fillColor=none;top=0;left=0;bottom=0;right=0;align=left;spacingLeft=6;overflow=hidden;strokeColor=#5C5570;fontFamily=Verdana;fontColor=#545454;fontStyle=1" vertex="1" parent="FPL4rMx5QKKNr9mmE6WW-117">
          <mxGeometry x="240" width="156.5" height="30" as="geometry">
            <mxRectangle width="156.5" height="30" as="alternateBounds" />
          </mxGeometry>
        </mxCell>
        <mxCell id="FPL4rMx5QKKNr9mmE6WW-121" style="shape=tableRow;horizontal=0;startSize=0;swimlaneHead=0;swimlaneBody=0;fillColor=none;collapsible=0;dropTarget=0;points=[[0,0.5],[1,0.5]];portConstraint=eastwest;top=0;left=0;right=0;bottom=0;strokeColor=#5C5570;fontFamily=Verdana;fontColor=#545454;" vertex="1" parent="FPL4rMx5QKKNr9mmE6WW-112">
          <mxGeometry y="92" width="396.5" height="30" as="geometry" />
        </mxCell>
        <mxCell id="FPL4rMx5QKKNr9mmE6WW-122" value="FK" style="shape=partialRectangle;connectable=0;fillColor=none;top=0;left=0;bottom=0;right=0;editable=1;overflow=hidden;strokeColor=#5C5570;fontFamily=Verdana;fontColor=#545454;fontStyle=1" vertex="1" parent="FPL4rMx5QKKNr9mmE6WW-121">
          <mxGeometry width="30" height="30" as="geometry">
            <mxRectangle width="30" height="30" as="alternateBounds" />
          </mxGeometry>
        </mxCell>
        <mxCell id="FPL4rMx5QKKNr9mmE6WW-123" value="DEVICE_ID" style="shape=partialRectangle;connectable=0;fillColor=none;top=0;left=0;bottom=0;right=0;align=left;spacingLeft=6;overflow=hidden;strokeColor=#5C5570;fontFamily=Verdana;fontColor=#545454;fontStyle=1" vertex="1" parent="FPL4rMx5QKKNr9mmE6WW-121">
          <mxGeometry x="30" width="210" height="30" as="geometry">
            <mxRectangle width="210" height="30" as="alternateBounds" />
          </mxGeometry>
        </mxCell>
        <mxCell id="FPL4rMx5QKKNr9mmE6WW-124" value="NUMBER(38,0)" style="shape=partialRectangle;connectable=0;fillColor=none;top=0;left=0;bottom=0;right=0;align=left;spacingLeft=6;overflow=hidden;strokeColor=#5C5570;fontFamily=Verdana;fontColor=#545454;fontStyle=1" vertex="1" parent="FPL4rMx5QKKNr9mmE6WW-121">
          <mxGeometry x="240" width="156.5" height="30" as="geometry">
            <mxRectangle width="156.5" height="30" as="alternateBounds" />
          </mxGeometry>
        </mxCell>
        <mxCell id="FPL4rMx5QKKNr9mmE6WW-125" style="shape=tableRow;horizontal=0;startSize=0;swimlaneHead=0;swimlaneBody=0;fillColor=none;collapsible=0;dropTarget=0;points=[[0,0.5],[1,0.5]];portConstraint=eastwest;top=0;left=0;right=0;bottom=0;strokeColor=#5C5570;fontFamily=Verdana;fontColor=#545454;" vertex="1" parent="FPL4rMx5QKKNr9mmE6WW-112">
          <mxGeometry y="122" width="396.5" height="30" as="geometry" />
        </mxCell>
        <mxCell id="FPL4rMx5QKKNr9mmE6WW-126" value="FK" style="shape=partialRectangle;connectable=0;fillColor=none;top=0;left=0;bottom=0;right=0;editable=1;overflow=hidden;strokeColor=#5C5570;fontFamily=Verdana;fontColor=#545454;fontStyle=1" vertex="1" parent="FPL4rMx5QKKNr9mmE6WW-125">
          <mxGeometry width="30" height="30" as="geometry">
            <mxRectangle width="30" height="30" as="alternateBounds" />
          </mxGeometry>
        </mxCell>
        <mxCell id="FPL4rMx5QKKNr9mmE6WW-127" value="SESSION_ID" style="shape=partialRectangle;connectable=0;fillColor=none;top=0;left=0;bottom=0;right=0;align=left;spacingLeft=6;overflow=hidden;strokeColor=#5C5570;fontFamily=Verdana;fontColor=#545454;fontStyle=1" vertex="1" parent="FPL4rMx5QKKNr9mmE6WW-125">
          <mxGeometry x="30" width="210" height="30" as="geometry">
            <mxRectangle width="210" height="30" as="alternateBounds" />
          </mxGeometry>
        </mxCell>
        <mxCell id="FPL4rMx5QKKNr9mmE6WW-128" value="NUMBER(38,0)" style="shape=partialRectangle;connectable=0;fillColor=none;top=0;left=0;bottom=0;right=0;align=left;spacingLeft=6;overflow=hidden;strokeColor=#5C5570;fontFamily=Verdana;fontColor=#545454;fontStyle=1" vertex="1" parent="FPL4rMx5QKKNr9mmE6WW-125">
          <mxGeometry x="240" width="156.5" height="30" as="geometry">
            <mxRectangle width="156.5" height="30" as="alternateBounds" />
          </mxGeometry>
        </mxCell>
        <mxCell id="FPL4rMx5QKKNr9mmE6WW-129" style="shape=tableRow;horizontal=0;startSize=0;swimlaneHead=0;swimlaneBody=0;fillColor=none;collapsible=0;dropTarget=0;points=[[0,0.5],[1,0.5]];portConstraint=eastwest;top=0;left=0;right=0;bottom=0;strokeColor=#5C5570;fontFamily=Verdana;fontColor=#545454;" vertex="1" parent="FPL4rMx5QKKNr9mmE6WW-112">
          <mxGeometry y="152" width="396.5" height="30" as="geometry" />
        </mxCell>
        <mxCell id="FPL4rMx5QKKNr9mmE6WW-130" value="FK" style="shape=partialRectangle;connectable=0;fillColor=none;top=0;left=0;bottom=0;right=0;editable=1;overflow=hidden;strokeColor=#5C5570;fontFamily=Verdana;fontColor=#545454;fontStyle=1" vertex="1" parent="FPL4rMx5QKKNr9mmE6WW-129">
          <mxGeometry width="30" height="30" as="geometry">
            <mxRectangle width="30" height="30" as="alternateBounds" />
          </mxGeometry>
        </mxCell>
        <mxCell id="FPL4rMx5QKKNr9mmE6WW-131" value="SEGMENT_ID" style="shape=partialRectangle;connectable=0;fillColor=none;top=0;left=0;bottom=0;right=0;align=left;spacingLeft=6;overflow=hidden;strokeColor=#5C5570;fontFamily=Verdana;fontColor=#545454;fontStyle=1" vertex="1" parent="FPL4rMx5QKKNr9mmE6WW-129">
          <mxGeometry x="30" width="210" height="30" as="geometry">
            <mxRectangle width="210" height="30" as="alternateBounds" />
          </mxGeometry>
        </mxCell>
        <mxCell id="FPL4rMx5QKKNr9mmE6WW-132" value="NUMBER(38,0)" style="shape=partialRectangle;connectable=0;fillColor=none;top=0;left=0;bottom=0;right=0;align=left;spacingLeft=6;overflow=hidden;strokeColor=#5C5570;fontFamily=Verdana;fontColor=#545454;fontStyle=1" vertex="1" parent="FPL4rMx5QKKNr9mmE6WW-129">
          <mxGeometry x="240" width="156.5" height="30" as="geometry">
            <mxRectangle width="156.5" height="30" as="alternateBounds" />
          </mxGeometry>
        </mxCell>
        <mxCell id="FPL4rMx5QKKNr9mmE6WW-133" style="shape=tableRow;horizontal=0;startSize=0;swimlaneHead=0;swimlaneBody=0;fillColor=none;collapsible=0;dropTarget=0;points=[[0,0.5],[1,0.5]];portConstraint=eastwest;top=0;left=0;right=0;bottom=0;strokeColor=#5C5570;fontFamily=Verdana;fontColor=#545454;" vertex="1" parent="FPL4rMx5QKKNr9mmE6WW-112">
          <mxGeometry y="182" width="396.5" height="30" as="geometry" />
        </mxCell>
        <mxCell id="FPL4rMx5QKKNr9mmE6WW-134" value="" style="shape=partialRectangle;connectable=0;fillColor=none;top=0;left=0;bottom=0;right=0;editable=1;overflow=hidden;strokeColor=#5C5570;fontFamily=Verdana;fontColor=#545454;fontStyle=0" vertex="1" parent="FPL4rMx5QKKNr9mmE6WW-133">
          <mxGeometry width="30" height="30" as="geometry">
            <mxRectangle width="30" height="30" as="alternateBounds" />
          </mxGeometry>
        </mxCell>
        <mxCell id="FPL4rMx5QKKNr9mmE6WW-135" value="TIME_SPENT (?)" style="shape=partialRectangle;connectable=0;fillColor=none;top=0;left=0;bottom=0;right=0;align=left;spacingLeft=6;overflow=hidden;strokeColor=#5C5570;fontFamily=Verdana;fontColor=#545454;fontStyle=0" vertex="1" parent="FPL4rMx5QKKNr9mmE6WW-133">
          <mxGeometry x="30" width="210" height="30" as="geometry">
            <mxRectangle width="210" height="30" as="alternateBounds" />
          </mxGeometry>
        </mxCell>
        <mxCell id="FPL4rMx5QKKNr9mmE6WW-136" value="NUMBER(38,0)" style="shape=partialRectangle;connectable=0;fillColor=none;top=0;left=0;bottom=0;right=0;align=left;spacingLeft=6;overflow=hidden;strokeColor=#5C5570;fontFamily=Verdana;fontColor=#545454;fontStyle=0" vertex="1" parent="FPL4rMx5QKKNr9mmE6WW-133">
          <mxGeometry x="240" width="156.5" height="30" as="geometry">
            <mxRectangle width="156.5" height="30" as="alternateBounds" />
          </mxGeometry>
        </mxCell>
        <mxCell id="FPL4rMx5QKKNr9mmE6WW-137" style="edgeStyle=orthogonalEdgeStyle;rounded=0;orthogonalLoop=1;jettySize=auto;html=1;exitX=1;exitY=0.5;exitDx=0;exitDy=0;fontSize=20;endArrow=ERmany;endFill=0;startArrow=ERone;startFill=0;" edge="1" parent="1" source="FPL4rMx5QKKNr9mmE6WW-121" target="FPL4rMx5QKKNr9mmE6WW-70">
          <mxGeometry relative="1" as="geometry" />
        </mxCell>
        <mxCell id="FPL4rMx5QKKNr9mmE6WW-138" style="edgeStyle=orthogonalEdgeStyle;rounded=0;orthogonalLoop=1;jettySize=auto;html=1;exitX=1;exitY=0.5;exitDx=0;exitDy=0;entryX=0;entryY=0.5;entryDx=0;entryDy=0;fontSize=20;startArrow=ERone;startFill=0;endArrow=ERmany;endFill=0;" edge="1" parent="1" source="FPL4rMx5QKKNr9mmE6WW-113" target="FPL4rMx5QKKNr9mmE6WW-87">
          <mxGeometry relative="1" as="geometry" />
        </mxCell>
        <mxCell id="FPL4rMx5QKKNr9mmE6WW-139" style="edgeStyle=orthogonalEdgeStyle;rounded=0;orthogonalLoop=1;jettySize=auto;html=1;exitX=1;exitY=0.5;exitDx=0;exitDy=0;entryX=-0.004;entryY=-0.039;entryDx=0;entryDy=0;entryPerimeter=0;fontSize=20;startArrow=ERone;startFill=0;endArrow=ERmany;endFill=0;" edge="1" parent="1" source="FPL4rMx5QKKNr9mmE6WW-100" target="FPL4rMx5QKKNr9mmE6WW-87">
          <mxGeometry relative="1" as="geometry" />
        </mxCell>
        <mxCell id="FPL4rMx5QKKNr9mmE6WW-140" style="edgeStyle=orthogonalEdgeStyle;rounded=0;orthogonalLoop=1;jettySize=auto;html=1;exitX=0;exitY=0.5;exitDx=0;exitDy=0;fontSize=20;startArrow=ERone;startFill=0;endArrow=ERmany;endFill=0;" edge="1" parent="1" source="FPL4rMx5QKKNr9mmE6WW-129" target="FPL4rMx5QKKNr9mmE6WW-36">
          <mxGeometry relative="1" as="geometry">
            <Array as="points">
              <mxPoint x="690" y="565" />
              <mxPoint x="690" y="497" />
            </Array>
          </mxGeometry>
        </mxCell>
        <mxCell id="FPL4rMx5QKKNr9mmE6WW-141" style="edgeStyle=orthogonalEdgeStyle;rounded=0;orthogonalLoop=1;jettySize=auto;html=1;exitX=0;exitY=0.5;exitDx=0;exitDy=0;entryX=1;entryY=0.5;entryDx=0;entryDy=0;fontSize=20;startArrow=ERone;startFill=0;endArrow=ERmany;endFill=0;targetPerimeterSpacing=0;endSize=6;startSize=6;" edge="1" parent="1" source="FPL4rMx5QKKNr9mmE6WW-125" target="FPL4rMx5QKKNr9mmE6WW-23">
          <mxGeometry relative="1" as="geometry">
            <Array as="points">
              <mxPoint x="710" y="535" />
              <mxPoint x="710" y="317" />
            </Array>
          </mxGeometry>
        </mxCell>
        <mxCell id="FPL4rMx5QKKNr9mmE6WW-142" style="edgeStyle=orthogonalEdgeStyle;rounded=0;orthogonalLoop=1;jettySize=auto;html=1;exitX=0;exitY=0.5;exitDx=0;exitDy=0;entryX=1.001;entryY=0.763;entryDx=0;entryDy=0;entryPerimeter=0;startArrow=ERone;startFill=0;endArrow=ERmany;endFill=0;" edge="1" parent="1" source="FPL4rMx5QKKNr9mmE6WW-117" target="FPL4rMx5QKKNr9mmE6WW-10">
          <mxGeometry relative="1" as="geometry" />
        </mxCell>
        <mxCell id="FPL4rMx5QKKNr9mmE6WW-143" style="edgeStyle=orthogonalEdgeStyle;rounded=0;orthogonalLoop=1;jettySize=auto;html=1;exitX=0;exitY=0.5;exitDx=0;exitDy=0;entryX=1.001;entryY=0.206;entryDx=0;entryDy=0;entryPerimeter=0;startArrow=ERone;startFill=0;endArrow=ERmany;endFill=0;startSize=6;endSize=6;targetPerimeterSpacing=0;" edge="1" parent="1" source="FPL4rMx5QKKNr9mmE6WW-104" target="FPL4rMx5QKKNr9mmE6WW-10">
          <mxGeometry relative="1" as="geometry">
            <Array as="points">
              <mxPoint x="730" y="285" />
              <mxPoint x="730" y="128" />
            </Array>
          </mxGeometry>
        </mxCell>
        <mxCell id="FPL4rMx5QKKNr9mmE6WW-144" value="DimTime tendria que ser en relaidad DimSession ?" style="text;html=1;align=center;verticalAlign=middle;resizable=0;points=[];autosize=1;strokeColor=none;fillColor=none;" vertex="1" parent="1">
          <mxGeometry x="1260" y="40" width="290" height="30" as="geometry" />
        </mxCell>
        <mxCell id="FPL4rMx5QKKNr9mmE6WW-145" value="Cual es el campo metrica de las Fact? O es todo FK?" style="text;html=1;align=center;verticalAlign=middle;resizable=0;points=[];autosize=1;strokeColor=none;fillColor=none;" vertex="1" parent="1">
          <mxGeometry x="805" y="355" width="310" height="30" as="geometry" />
        </mxCell>
      </root>
    </mxGraphModel>
  </diagram>
</mxfile>
